<?xml version="1.0" standalone="no"?>
<!DOCTYPE svg PUBLIC "-//W3C//DTD SVG 20010904//EN"
 "http://www.w3.org/TR/2001/REC-SVG-20010904/DTD/svg10.dtd">
<svg version="1.0" xmlns="http://www.w3.org/2000/svg"
 width="525.000000pt" height="525.000000pt" viewBox="0 0 525.000000 525.000000"
 preserveAspectRatio="xMidYMid meet">

<g transform="translate(0.000000,525.000000) scale(0.100000,-0.100000)"
fill="#000000" stroke="none">
<path d="M2205 4627 c-1201 -719 -1484 -889 -1493 -900 -6 -7 -12 -436 -17
-1102 -7 -1050 -6 -1091 12 -1111 10 -12 198 -128 418 -259 220 -131 609 -364
864 -517 336 -201 467 -275 473 -266 4 7 8 229 8 493 l0 480 -178 104 c-97 58
-309 184 -469 280 l-293 175 0 607 0 608 93 56 c50 31 155 93 232 139 959 568
1500 894 1519 915 17 18 12 22 -156 121 -95 57 -193 115 -218 130 -163 99
-429 250 -441 250 -8 0 -167 -91 -354 -203z"/>
<path d="M3690 4147 c-14 -8 -77 -46 -140 -85 -63 -39 -240 -146 -392 -238
-153 -91 -278 -170 -278 -174 0 -4 37 -29 83 -55 190 -110 274 -158 312 -180
66 -37 267 -156 308 -181 l37 -24 0 -1090 c0 -600 4 -1090 8 -1090 12 0 813
468 830 484 12 11 13 201 6 1115 l-7 1102 -31 23 c-17 13 -89 57 -161 98 -71
41 -220 128 -329 192 -110 64 -204 116 -210 116 -6 0 -22 -6 -36 -13z"/>
<path d="M2485 3424 c-104 -64 -283 -172 -397 -241 -115 -69 -208 -131 -208
-137 0 -11 42 -38 230 -148 52 -31 184 -108 293 -172 l197 -117 0 -1090 c0
-599 3 -1089 8 -1089 4 0 23 10 42 21 19 12 193 114 385 227 193 112 357 212
366 221 19 20 17 -63 25 1169 5 777 4 1012 -5 1012 -7 0 -10 4 -6 9 3 5 -1 16
-9 24 -19 19 -498 303 -566 335 -14 7 -52 30 -85 51 -33 22 -64 40 -70 40 -5
0 -95 -52 -200 -115z"/>
</g>
</svg>
